<svg width="64" height="64" viewBox="0 0 64 64" fill="none" xmlns="http://www.w3.org/2000/svg">
<path d="M61.2957 0H2.71728C1.228 0 0 1.23052 0 2.72285V61.2772C0 62.7695 1.228 64 2.71728 64H61.152C62.6413 64 63.8693 62.7695 63.9999 61.4081V2.72285C64.013 1.23052 62.785 0 61.2957 0ZM58.5784 58.6983H5.30393V5.31479H58.5784V58.6983V58.6983Z" fill="#52B4D3"/>
<path d="M30.0339 26.0111H41.308L38.8651 28.4721C37.7808 29.5586 37.7808 31.1949 38.8651 32.2815C39.4137 32.8313 41.1774 33.7869 42.6667 32.2815L49.7342 25.1994C50.8185 24.1129 51.0145 22.6599 49.7342 21.3901L42.6667 14.3081C41.5823 13.2215 39.9494 13.2215 38.8651 14.3081C37.7808 15.3946 37.7808 17.0309 38.8651 18.1174L41.308 20.5654H30.0339C28.5446 20.5654 27.3166 21.7959 27.3166 23.2882C27.3166 24.7936 28.5446 26.0111 30.0339 26.0111Z" fill="#52B4D3"/>
<path d="M21.2027 49.5742C22.287 50.6607 23.92 50.6607 25.0043 49.5742C26.0886 48.4877 26.0886 46.8513 25.0043 45.7648L22.5613 43.3169H33.8354C35.3247 43.3169 36.5527 42.0864 36.5527 40.594C36.5527 39.1017 35.3247 37.8712 33.8354 37.8712H22.5613L25.0043 35.4232C26.0886 34.3367 26.0886 32.7004 25.0043 31.6139C24.4556 31.0641 22.692 30.1085 21.2027 31.6139L14.1351 38.6828C12.8157 40.005 12.9724 41.3271 14.1351 42.4922L21.2027 49.5742Z" fill="#52B4D3"/>
</svg>
