<svg width="33" height="30" viewBox="0 0 33 30" fill="none" xmlns="http://www.w3.org/2000/svg">
<path d="M16.13 29.2881C13.0537 29.2881 10.2905 28.6613 7.84042 27.4076C5.39029 26.1539 3.47102 24.4201 2.08261 22.2062C0.694206 19.9655 0 17.4448 0 14.6441C0 11.8433 0.694206 9.33593 2.08261 7.12198C3.47102 4.88136 5.39029 3.1342 7.84042 1.88052C10.2905 0.626841 13.0537 0 16.13 0C19.2063 0 21.9695 0.626841 24.4196 1.88052C26.8698 3.1342 28.789 4.88136 30.1774 7.12198C31.5658 9.33593 32.26 11.8433 32.26 14.6441C32.26 17.4448 31.5658 19.9655 30.1774 22.2062C28.789 24.4201 26.8698 26.1539 24.4196 27.4076C21.9695 28.6613 19.2063 29.2881 16.13 29.2881ZM16.13 21.646C17.3279 21.646 18.4032 21.3659 19.356 20.8058C20.3361 20.2189 21.112 19.4054 21.6836 18.3651C22.2553 17.2981 22.5412 16.0578 22.5412 14.6441C22.5412 13.2303 22.2553 12.0033 21.6836 10.963C21.112 9.89608 20.3361 9.08252 19.356 8.52237C18.4032 7.93554 17.3279 7.64212 16.13 7.64212C14.9322 7.64212 13.8432 7.93554 12.8632 8.52237C11.9104 9.08252 11.1481 9.89608 10.5764 10.963C10.0047 12.0033 9.71885 13.2303 9.71885 14.6441C9.71885 16.0578 10.0047 17.2981 10.5764 18.3651C11.1481 19.4054 11.9104 20.2189 12.8632 20.8058C13.8432 21.3659 14.9322 21.646 16.13 21.646Z" fill="#E1B850"/>
<path d="M15.9735 25.627C9.90776 25.627 4.99048 20.7097 4.99048 14.6439C4.99048 8.57817 9.90776 3.66089 15.9735 3.66089C22.0393 3.66089 26.9566 8.57817 26.9566 14.6439C26.9566 20.7097 22.0393 25.627 15.9735 25.627Z" fill="#D2912F"/>
<path d="M13.621 20.1354V18.6695L14.7079 18.4407V11.6693H13.099L13.0347 12.7919H11.1398V9.72437H20.8144V12.7919H18.898L18.8408 11.6693H17.2177V18.4407L18.3046 18.6695V20.1354H13.621Z" fill="white"/>
</svg>
