<svg width="108" height="54" viewBox="0 0 108 54" fill="none" xmlns="http://www.w3.org/2000/svg">
<path d="M6.12126 5.35973H0.117188V0H19.0373V5.35973H13.0333V20.5017H6.12126V5.35973Z" fill="#202230"/>
<path d="M29.619 15.347H27.7446V20.5017H20.8326V0H30.7027C32.5967 0 34.2466 0.312407 35.6524 0.937221C37.0582 1.56203 38.1419 2.4602 38.9034 3.63173C39.6649 4.80325 40.0456 6.17003 40.0456 7.73207C40.0456 9.19648 39.7137 10.4754 39.0498 11.5688C38.386 12.6622 37.4292 13.5311 36.1796 14.1755L40.4849 20.5017H33.1043L29.619 15.347ZM33.075 7.73207C33.075 6.97058 32.8407 6.38481 32.3721 5.97478C31.9035 5.54522 31.2006 5.33044 30.2634 5.33044H27.7446V10.1337H30.2634C31.2006 10.1337 31.9035 9.92868 32.3721 9.51865C32.8407 9.08909 33.075 8.49356 33.075 7.73207Z" fill="#202230"/>
<path d="M56.6261 16.9285H48.8355L47.4589 20.5017H40.4298L49.392 0H56.1868L65.149 20.5017H58.0027L56.6261 16.9285ZM54.7224 11.9496L52.7308 6.79485L50.7392 11.9496H54.7224Z" fill="#202230"/>
<path d="M66.2521 0H76.3565C78.641 0 80.6521 0.419797 82.3899 1.25939C84.1471 2.07946 85.5042 3.26075 86.4609 4.80326C87.4372 6.34576 87.9253 8.16163 87.9253 10.2508C87.9253 12.3401 87.4372 14.1559 86.4609 15.6984C85.5042 17.241 84.1471 18.432 82.3899 19.2716C80.6521 20.0917 78.641 20.5017 76.3565 20.5017H66.2521V0ZM76.0636 15.1127C77.5475 15.1127 78.7288 14.6929 79.6075 13.8533C80.5057 12.9942 80.9547 11.7934 80.9547 10.2508C80.9547 8.70834 80.5057 7.51729 79.6075 6.6777C78.7288 5.81858 77.5475 5.38902 76.0636 5.38902H73.1641V15.1127H76.0636Z" fill="#202230"/>
<path d="M107.495 15.2884V20.5017H90.4491V0H107.114V5.21329H97.244V7.61492H105.913V12.5939H97.244V15.2884H107.495Z" fill="#202230"/>
<path d="M15.9258 53.451C12.904 53.451 10.1817 52.8375 7.75874 51.6105C5.33584 50.3568 3.43018 48.623 2.04177 46.409C0.680592 44.1684 0 41.6344 0 38.8069C0 35.9795 0.680592 33.4588 2.04177 31.2448C3.43018 29.0042 5.33584 27.2704 7.75874 26.0434C10.1817 24.7897 12.904 24.1628 15.9258 24.1628C18.7027 24.1628 21.18 24.643 23.3579 25.6032C25.5358 26.5635 27.3326 27.9506 28.7482 29.7644L22.6637 35.0859C20.8942 32.8986 18.8116 31.805 16.4159 31.805C14.4013 31.805 12.7815 32.4451 11.5564 33.7255C10.3314 34.9792 9.71885 36.673 9.71885 38.8069C9.71885 40.9408 10.3314 42.648 11.5564 43.9283C12.7815 45.182 14.4013 45.8089 16.4159 45.8089C18.8116 45.8089 20.8942 44.7152 22.6637 42.5279L28.7482 47.8494C27.3326 49.6633 25.5358 51.0503 23.3579 52.0106C21.18 52.9708 18.7027 53.451 15.9258 53.451Z" fill="#202230"/>
<path d="M65.547 24.803H75.1842V52.8108H65.547V24.803Z" fill="#202230"/>
<path d="M108 24.803V52.8108H100.078L89.2157 40.0873V52.8108H79.8235V24.803H87.7456L98.6078 37.5266V24.803H108Z" fill="#202230"/>
<path d="M45.9192 53.451C42.8429 53.451 40.0797 52.8241 37.6296 51.5705C35.1795 50.3168 33.2602 48.583 31.8718 46.369C30.4834 44.1284 29.7892 41.6077 29.7892 38.8069C29.7892 36.0061 30.4834 33.4988 31.8718 31.2848C33.2602 29.0442 35.1795 27.297 37.6296 26.0434C40.0797 24.7897 42.8429 24.1628 45.9192 24.1628C48.9955 24.1628 51.7587 24.7897 54.2088 26.0434C56.6589 27.297 58.5782 29.0442 59.9666 31.2848C61.355 33.4988 62.0492 36.0061 62.0492 38.8069C62.0492 41.6077 61.355 44.1284 59.9666 46.369C58.5782 48.583 56.6589 50.3168 54.2088 51.5705C51.7587 52.8241 48.9955 53.451 45.9192 53.451ZM45.9192 45.8089C47.117 45.8089 48.1924 45.5288 49.1452 44.9686C50.1253 44.3818 50.9011 43.5682 51.4728 42.5279C52.0445 41.461 52.3304 40.2206 52.3304 38.8069C52.3304 37.3932 52.0445 36.1662 51.4728 35.1259C50.9011 34.0589 50.1253 33.2454 49.1452 32.6852C48.1924 32.0984 47.117 31.805 45.9192 31.805C44.7214 31.805 43.6324 32.0984 42.6524 32.6852C41.6995 33.2454 40.9373 34.0589 40.3656 35.1259C39.7939 36.1662 39.508 37.3932 39.508 38.8069C39.508 40.2206 39.7939 41.461 40.3656 42.5279C40.9373 43.5682 41.6995 44.3818 42.6524 44.9686C43.6324 45.5288 44.7214 45.8089 45.9192 45.8089Z" fill="#E1B850"/>
<path d="M45.7627 49.7898C39.6969 49.7898 34.7797 44.8726 34.7797 38.8068C34.7797 32.741 39.6969 27.8237 45.7627 27.8237C51.8285 27.8237 56.7458 32.741 56.7458 38.8068C56.7458 44.8726 51.8285 49.7898 45.7627 49.7898Z" fill="#D2912F"/>
<path d="M43.4102 44.2982V42.8324L44.4971 42.6036V35.8321H42.8882L42.8239 36.9547H40.929V33.8872H50.6035V36.9547H48.6872L48.63 35.8321H47.0069V42.6036L48.0937 42.8324V44.2982H43.4102Z" fill="#202230"/>
</svg>
