<svg width="220" height="31" viewBox="0 0 220 31" fill="none" xmlns="http://www.w3.org/2000/svg">
<path d="M6.33173 28.5477V25.3452L9.1865 24.7962V6.02063H4.33705L4.04425 9.2048H0V1.90318H23.7714V9.2048H19.7089L19.4161 6.02063H14.53V24.7962L17.4031 25.3452V28.5477H6.33173Z" fill="#2D3034"/>
<path d="M24.9609 28.5477V25.3452L27.5229 24.7962V12.5171L24.6864 11.9681V8.7473H32.5004L32.7017 11.1995L32.7383 11.6387C33.2263 10.5651 33.8302 9.75379 34.55 9.2048C35.2698 8.6558 36.1299 8.3813 37.1303 8.3813C37.4475 8.3813 37.7952 8.4118 38.1734 8.4728C38.5516 8.5216 38.8871 8.5887 39.1799 8.6741L38.6126 13.5967L35.9591 13.4503C35.2027 13.4137 34.5866 13.5418 34.1108 13.8346C33.6472 14.1274 33.2324 14.5483 32.8664 15.0973V24.7962L35.4284 25.3452V28.5477H24.9609Z" fill="#2D3034"/>
<path d="M47.0305 28.932C45.0663 28.932 43.5047 28.4074 42.3457 27.3582C41.1867 26.2968 40.6072 24.8572 40.6072 23.0394C40.6072 21.7951 40.9427 20.7032 41.6137 19.7638C42.2969 18.8244 43.2973 18.0863 44.6149 17.5495C45.9447 17.0127 47.5795 16.7443 49.5192 16.7443H52.1361V15.2803C52.1361 14.3287 51.8555 13.5601 51.2943 12.9746C50.7453 12.3768 49.9157 12.0779 48.8056 12.0779C48.2322 12.0779 47.7137 12.1511 47.2501 12.2975C46.7987 12.4317 46.39 12.6269 46.024 12.8831L45.6031 15.4999H41.7601L41.6869 10.3577C42.7239 9.77209 43.8463 9.29629 45.0541 8.9303C46.2619 8.5643 47.61 8.3813 49.0984 8.3813C51.6847 8.3813 53.7282 8.9852 55.2288 10.193C56.7294 11.3886 57.4797 13.1027 57.4797 15.3352V23.4969C57.4797 23.7653 57.4797 24.0337 57.4797 24.3021C57.4919 24.5583 57.5163 24.8084 57.5529 25.0524L59.6207 25.3452V28.5477H52.9962C52.862 28.2061 52.7278 27.8401 52.5936 27.4497C52.4594 27.0593 52.3618 26.6689 52.3008 26.2785C51.6664 27.0837 50.9161 27.7303 50.0499 28.2183C49.196 28.6941 48.1895 28.932 47.0305 28.932ZM48.4579 24.9792C49.2021 24.9792 49.9096 24.8145 50.5806 24.4851C51.2516 24.1435 51.7701 23.6982 52.1361 23.1492V20.02H49.5009C48.3298 20.02 47.4392 20.2884 46.8292 20.8252C46.2314 21.362 45.9325 22.0085 45.9325 22.7649C45.9325 23.4725 46.1521 24.0215 46.5913 24.4119C47.0427 24.7901 47.6649 24.9792 48.4579 24.9792Z" fill="#2D3034"/>
<path d="M69.1366 28.932C67.5628 28.932 66.2087 28.5294 65.0741 27.7242C63.9517 26.9068 63.0916 25.7722 62.4938 24.3204C61.896 22.8564 61.5971 21.1485 61.5971 19.1965V18.8122C61.5971 16.726 61.896 14.9021 62.4938 13.3405C63.1038 11.779 63.97 10.5651 65.0924 9.69889C66.2148 8.8205 67.5567 8.3813 69.1183 8.3813C70.2041 8.3813 71.1557 8.6009 71.9731 9.0401C72.7905 9.46709 73.4981 10.0771 74.0959 10.8701V3.76976L71.2411 3.22076V0H79.4394V24.7962L82.0014 25.3452V28.5477H74.8096L74.407 26.1321C73.7848 27.0471 73.0406 27.7425 72.1744 28.2183C71.3204 28.6941 70.3078 28.932 69.1366 28.932ZM70.7287 24.7779C71.4729 24.7779 72.1256 24.6193 72.6868 24.3021C73.248 23.9849 73.7177 23.5274 74.0959 22.9296V14.53C73.7299 13.8956 73.2663 13.4076 72.7051 13.0661C72.1439 12.7123 71.4973 12.5354 70.7653 12.5354C69.8747 12.5354 69.1427 12.8038 68.5693 13.3405C68.0081 13.8651 67.5933 14.5971 67.3249 15.5365C67.0688 16.4759 66.9407 17.5678 66.9407 18.8122V19.1965C66.9407 20.9289 67.2334 22.2952 67.819 23.2956C68.4046 24.2838 69.3745 24.7779 70.7287 24.7779Z" fill="#2D3034"/>
<path d="M93.1826 28.932C91.2916 28.932 89.6385 28.5172 88.2233 27.6876C86.8081 26.8458 85.7101 25.6929 84.9294 24.2289C84.1608 22.7649 83.7765 21.0936 83.7765 19.2148V18.4828C83.7765 16.5186 84.1425 14.7801 84.8745 13.2673C85.6064 11.7424 86.6373 10.5468 87.9671 9.68059C89.3091 8.8022 90.889 8.3691 92.7068 8.3813C94.5001 8.3813 96.0068 8.7351 97.2268 9.44269C98.4468 10.1503 99.374 11.169 100.008 12.4988C100.643 13.8285 100.96 15.4389 100.96 17.3299V20.2396H89.3213L89.2847 20.3494C89.3579 21.2156 89.5714 21.9902 89.9252 22.6734C90.2912 23.3444 90.8036 23.8751 91.4624 24.2655C92.1212 24.6437 92.9203 24.8328 93.8597 24.8328C94.8356 24.8328 95.7445 24.7108 96.5863 24.4668C97.4403 24.2106 98.2699 23.8385 99.0751 23.3505L100.521 26.6445C99.7034 27.3033 98.6725 27.8523 97.4281 28.2915C96.1959 28.7185 94.7807 28.932 93.1826 28.932ZM89.3579 16.7077H95.9641V16.2319C95.9641 15.4267 95.8543 14.7374 95.6347 14.164C95.4273 13.5784 95.0857 13.1271 94.6099 12.8099C94.1463 12.4927 93.5425 12.3341 92.7983 12.3341C92.0907 12.3341 91.4929 12.5232 91.0049 12.9014C90.5169 13.2673 90.1326 13.7736 89.852 14.4202C89.5836 15.0668 89.4006 15.7988 89.303 16.6162L89.3579 16.7077Z" fill="#2D3034"/>
<path d="M152.913 28.932C150.327 28.932 148.076 28.3952 146.161 27.3216C144.245 26.2358 142.763 24.7047 141.714 22.7283C140.677 20.7398 140.158 18.3913 140.158 15.6829V14.7862C140.158 12.1999 140.658 9.91239 141.659 7.92381C142.671 5.92303 144.111 4.35535 145.978 3.22076C147.844 2.08618 150.064 1.51888 152.639 1.51888C154.444 1.51888 156.134 1.77508 157.708 2.28747C159.294 2.79987 160.709 3.58066 161.953 4.62985V11.0714H157.982L157.433 7.02712C157.031 6.73432 156.591 6.48423 156.116 6.27683C155.64 6.06943 155.121 5.91083 154.56 5.80103C154.011 5.69124 153.413 5.63634 152.767 5.63634C151.254 5.63634 149.955 6.00843 148.869 6.75262C147.783 7.49681 146.947 8.5521 146.362 9.91849C145.788 11.2727 145.502 12.8831 145.502 14.7496V15.6829C145.502 17.5495 145.807 19.166 146.417 20.5324C147.027 21.8988 147.893 22.9601 149.015 23.7165C150.138 24.4607 151.467 24.8328 153.005 24.8328C153.773 24.8328 154.542 24.7474 155.31 24.5766C156.091 24.3936 156.799 24.1618 157.433 23.8812L157.982 20.1298H161.953V26.4981C160.916 27.1813 159.623 27.7608 158.074 28.2366C156.524 28.7002 154.804 28.932 152.913 28.932Z" fill="#2D3034"/>
<path d="M173.995 28.932C172.043 28.932 170.365 28.505 168.962 27.651C167.559 26.797 166.486 25.6136 165.741 24.1008C164.997 22.5758 164.625 20.8252 164.625 18.8488V18.4645C164.625 16.5003 164.997 14.7618 165.741 13.249C166.486 11.7241 167.553 10.5346 168.944 9.68059C170.347 8.8144 172.018 8.3813 173.958 8.3813C175.922 8.3813 177.6 8.8144 178.99 9.68059C180.381 10.5346 181.449 11.718 182.193 13.2307C182.937 14.7435 183.309 16.4881 183.309 18.4645V18.8488C183.309 20.8252 182.937 22.5758 182.193 24.1008C181.449 25.6136 180.381 26.797 178.99 27.651C177.6 28.505 175.934 28.932 173.995 28.932ZM173.995 24.8328C174.922 24.8328 175.678 24.5827 176.264 24.0825C176.849 23.5823 177.282 22.8869 177.563 21.9963C177.844 21.0936 177.984 20.0444 177.984 18.8488V18.4645C177.984 17.2933 177.844 16.2624 177.563 15.3718C177.282 14.469 176.843 13.7675 176.245 13.2673C175.66 12.755 174.897 12.4988 173.958 12.4988C173.043 12.4988 172.287 12.755 171.689 13.2673C171.091 13.7675 170.652 14.469 170.371 15.3718C170.103 16.2624 169.969 17.2933 169.969 18.4645V18.8488C169.969 20.0444 170.103 21.0936 170.371 21.9963C170.652 22.8991 171.091 23.6006 171.689 24.1008C172.287 24.5888 173.055 24.8328 173.995 24.8328Z" fill="#2D3034"/>
<path d="M185.542 28.5477V25.3452L188.122 24.7962V12.5171L185.267 11.9681V8.7473H193.466V24.7962L196.027 25.3452V28.5477H185.542ZM187.939 4.55665V0H193.466V4.55665H187.939Z" fill="#2D3034"/>
<path d="M197.62 28.5477V25.3452L200.182 24.7962V12.5171L197.345 11.9681V8.7473H205.159L205.397 11.5838C206.056 10.5712 206.867 9.78429 207.831 9.22309C208.807 8.6619 209.917 8.3813 211.161 8.3813C213.126 8.3813 214.663 9.0096 215.773 10.2662C216.883 11.5228 217.438 13.493 217.438 16.177V24.7962L220 25.3452V28.5477H209.789V25.3452L212.076 24.7962V16.1953C212.076 14.8655 211.814 13.9261 211.29 13.3771C210.765 12.816 209.984 12.5354 208.947 12.5354C208.179 12.5354 207.508 12.7001 206.934 13.0295C206.373 13.3466 205.903 13.8041 205.525 14.4019V24.7962L207.684 25.3452V28.5477H197.62Z" fill="#2D3034"/>
<path d="M132.754 4.2172H108.966C108.361 4.2172 107.863 4.71588 107.863 5.32066V29.0504C107.863 29.6552 108.361 30.1539 108.966 30.1539H132.696C133.301 30.1539 133.799 29.6552 133.853 29.1035V5.32066C133.858 4.71588 133.359 4.2172 132.754 4.2172ZM131.651 28.0053H110.017V6.37108H131.651V28.0053V28.0053Z" fill="#52B4D3"/>
<path d="M120.059 14.7585H124.638L123.646 15.7558C123.205 16.1961 123.205 16.8593 123.646 17.2996C123.868 17.5224 124.585 17.9097 125.189 17.2996L128.059 14.4295C128.5 13.9892 128.579 13.4004 128.059 12.8858L125.189 10.0157C124.749 9.57537 124.086 9.57537 123.646 10.0157C123.205 10.456 123.205 11.1192 123.646 11.5595L124.638 12.5515H120.059C119.454 12.5515 118.956 13.0502 118.956 13.655C118.956 14.2651 119.454 14.7585 120.059 14.7585Z" fill="#52B4D3"/>
<path d="M116.473 24.3077C116.913 24.748 117.577 24.748 118.017 24.3077C118.457 23.8673 118.457 23.2042 118.017 22.7639L117.025 21.7718H121.603C122.208 21.7718 122.707 21.2731 122.707 20.6684C122.707 20.0636 122.208 19.5649 121.603 19.5649H117.025L118.017 18.5728C118.457 18.1325 118.457 17.4694 118.017 17.0291C117.794 16.8062 117.078 16.419 116.473 17.0291L113.603 19.8938C113.067 20.4296 113.131 20.9655 113.603 21.4376L116.473 24.3077Z" fill="#52B4D3"/>
</svg>
